<svg id="svg" xmlns="http://www.w3.org/2000/svg" xmlns:xlink="http://www.w3.org/1999/xlink" width="400" height="400" viewBox="0, 0, 400,400" version="1.1"><g id="svgg"><path id="path0" d="M103.600 32.800 C 103.600 33.022,102.533 33.200,101.200 33.200 C 99.867 33.200,98.800 33.378,98.800 33.600 C 98.800 33.820,98.080 34.000,97.200 34.000 C 96.320 34.000,95.600 34.180,95.600 34.400 C 95.600 34.620,95.161 34.800,94.624 34.800 C 94.087 34.800,93.536 34.980,93.400 35.200 C 93.264 35.420,92.713 35.600,92.176 35.600 C 91.639 35.600,91.200 35.780,91.200 36.000 C 91.200 36.220,90.840 36.400,90.400 36.400 C 89.960 36.400,89.600 36.580,89.600 36.800 C 89.600 37.020,89.240 37.200,88.800 37.200 C 88.360 37.200,88.000 37.380,88.000 37.600 C 88.000 37.820,87.764 38.000,87.475 38.000 C 87.187 38.000,86.564 38.360,86.092 38.800 C 85.620 39.240,85.028 39.600,84.777 39.600 C 84.526 39.600,83.817 40.140,83.200 40.800 C 82.583 41.460,81.853 42.000,81.576 42.000 C 80.915 42.000,74.800 48.230,74.800 48.903 C 74.800 49.189,74.440 49.683,74.000 50.000 C 73.560 50.317,73.200 50.857,73.200 51.200 C 73.200 51.543,72.840 52.083,72.400 52.400 C 71.960 52.717,71.600 53.297,71.600 53.688 C 71.600 54.080,71.420 54.400,71.200 54.400 C 70.980 54.400,70.800 54.760,70.800 55.200 C 70.800 55.640,70.620 56.000,70.400 56.000 C 70.180 56.000,70.000 56.360,70.000 56.800 C 70.000 57.240,69.820 57.600,69.600 57.600 C 69.380 57.600,69.200 57.960,69.200 58.400 C 69.200 58.840,69.020 59.200,68.800 59.200 C 68.580 59.200,68.400 59.639,68.400 60.176 C 68.400 60.713,68.220 61.264,68.000 61.400 C 67.780 61.536,67.600 62.267,67.600 63.024 C 67.600 63.781,67.420 64.400,67.200 64.400 C 66.980 64.400,66.800 65.289,66.800 66.376 C 66.800 67.463,66.620 68.464,66.400 68.600 C 66.135 68.764,66.000 114.330,66.000 204.000 C 66.000 293.670,66.135 339.236,66.400 339.400 C 66.620 339.536,66.800 340.346,66.800 341.200 C 66.800 342.054,66.980 342.864,67.200 343.000 C 67.420 343.136,67.600 343.777,67.600 344.424 C 67.600 345.071,67.780 345.600,68.000 345.600 C 68.220 345.600,68.400 345.960,68.400 346.400 C 68.400 346.840,68.580 347.200,68.800 347.200 C 69.020 347.200,69.200 347.560,69.200 348.000 C 69.200 348.440,69.380 348.800,69.600 348.800 C 69.820 348.800,70.000 349.160,70.000 349.600 C 70.000 350.040,70.180 350.400,70.400 350.400 C 70.620 350.400,70.800 350.720,70.800 351.112 C 70.800 351.503,71.160 352.083,71.600 352.400 C 72.040 352.717,72.400 353.198,72.400 353.468 C 72.400 354.136,78.330 360.069,79.700 360.771 C 80.305 361.081,80.800 361.485,80.800 361.668 C 80.800 361.850,81.070 362.000,81.400 362.000 C 81.730 362.000,82.000 362.180,82.000 362.400 C 82.000 362.620,82.270 362.800,82.600 362.800 C 82.930 362.800,83.200 362.980,83.200 363.200 C 83.200 363.420,83.560 363.600,84.000 363.600 C 84.440 363.600,84.800 363.780,84.800 364.000 C 84.800 364.220,85.160 364.400,85.600 364.400 C 86.040 364.400,86.400 364.580,86.400 364.800 C 86.400 365.020,86.940 365.200,87.600 365.200 C 88.260 365.200,88.800 365.380,88.800 365.600 C 88.800 365.820,89.329 366.000,89.976 366.000 C 90.623 366.000,91.264 366.180,91.400 366.400 C 91.536 366.620,92.537 366.800,93.624 366.800 C 94.711 366.800,95.600 366.980,95.600 367.200 C 95.600 367.465,118.867 367.600,164.600 367.600 C 225.667 367.600,233.600 367.531,233.600 367.000 C 233.600 366.582,233.146 366.386,232.100 366.354 C 231.275 366.328,230.915 366.225,231.300 366.124 C 231.936 365.958,232.000 365.235,232.000 358.171 C 232.000 351.057,231.941 350.396,231.300 350.347 C 230.915 350.318,231.230 350.162,232.000 350.000 C 232.770 349.838,203.486 349.682,166.924 349.653 C 123.095 349.618,100.363 349.464,100.200 349.200 C 100.064 348.980,98.973 348.800,97.776 348.800 C 96.579 348.800,95.600 348.620,95.600 348.400 C 95.600 348.180,95.060 348.000,94.400 348.000 C 93.740 348.000,93.200 347.820,93.200 347.600 C 93.200 347.380,92.922 347.200,92.582 347.200 C 92.242 347.200,91.542 346.795,91.028 346.300 C 90.513 345.805,89.445 344.860,88.655 344.200 C 87.864 343.540,87.213 342.775,87.209 342.500 C 87.204 342.225,87.020 342.000,86.800 342.000 C 86.580 342.000,86.400 341.640,86.400 341.200 C 86.400 340.760,86.265 340.399,86.100 340.397 C 85.620 340.392,84.800 338.340,84.800 337.144 C 84.800 336.541,84.620 335.936,84.400 335.800 C 83.877 335.477,83.877 330.800,84.400 330.800 C 84.620 330.800,84.800 330.181,84.800 329.424 C 84.800 328.667,84.980 327.936,85.200 327.800 C 85.420 327.664,85.600 327.203,85.600 326.776 C 85.600 326.349,85.780 326.000,86.000 326.000 C 86.220 326.000,86.400 325.775,86.400 325.499 C 86.400 324.819,91.186 320.000,91.861 320.000 C 92.157 320.000,92.400 319.820,92.400 319.600 C 92.400 319.380,92.760 319.200,93.200 319.200 C 93.640 319.200,94.000 319.020,94.000 318.800 C 94.000 318.580,94.540 318.400,95.200 318.400 C 95.860 318.400,96.400 318.220,96.400 318.000 C 96.400 317.735,119.533 317.600,165.000 317.600 C 225.711 317.600,233.600 317.531,233.600 317.000 C 233.600 316.582,233.146 316.386,232.100 316.354 C 231.275 316.328,230.915 316.225,231.300 316.124 C 231.936 315.958,232.000 315.235,232.000 308.171 C 232.000 301.057,231.941 300.396,231.300 300.347 C 230.915 300.318,231.230 300.162,232.000 300.000 C 232.770 299.838,201.776 299.682,163.124 299.653 C 116.647 299.618,92.763 299.735,92.600 300.000 C 92.464 300.220,91.733 300.400,90.976 300.400 C 90.219 300.400,89.600 300.580,89.600 300.800 C 89.600 301.020,89.060 301.200,88.400 301.200 C 87.740 301.200,87.200 301.380,87.200 301.600 C 87.200 301.820,86.840 302.000,86.400 302.000 C 85.960 302.000,85.600 302.180,85.600 302.400 C 85.600 302.620,85.240 302.800,84.800 302.800 C 84.002 302.800,84.000 302.533,84.000 187.400 C 84.000 110.733,84.134 72.000,84.400 72.000 C 84.620 72.000,84.800 71.089,84.800 69.976 C 84.800 68.729,84.953 68.048,85.200 68.200 C 85.433 68.344,85.600 67.937,85.600 67.224 C 85.600 66.551,85.780 66.000,86.000 66.000 C 86.220 66.000,86.400 65.640,86.400 65.200 C 86.400 64.760,86.580 64.400,86.800 64.400 C 87.020 64.400,87.200 64.040,87.200 63.600 C 87.200 63.160,87.380 62.800,87.600 62.800 C 87.820 62.800,88.000 62.575,88.000 62.300 C 88.002 61.157,93.046 55.998,95.302 54.832 C 95.906 54.520,96.400 54.115,96.400 53.932 C 96.400 53.750,96.760 53.600,97.200 53.600 C 97.640 53.600,98.000 53.420,98.000 53.200 C 98.000 52.980,98.439 52.800,98.976 52.800 C 99.513 52.800,100.064 52.620,100.200 52.400 C 100.336 52.180,100.876 52.000,101.400 52.000 C 101.924 52.000,102.464 51.820,102.600 51.600 C 102.736 51.380,104.007 51.200,105.424 51.200 C 106.875 51.200,108.000 51.025,108.000 50.800 C 108.000 50.535,129.202 50.382,170.700 50.347 C 205.185 50.318,232.770 50.162,232.000 50.000 C 231.230 49.838,230.915 49.682,231.300 49.653 C 231.941 49.604,232.000 48.943,232.000 41.829 C 232.000 34.765,231.936 34.042,231.300 33.876 C 230.915 33.775,231.275 33.672,232.100 33.646 C 233.146 33.614,233.600 33.418,233.600 33.000 C 233.600 32.469,226.111 32.400,168.600 32.400 C 125.533 32.400,103.600 32.535,103.600 32.800 M166.000 100.000 C 166.000 100.220,165.100 100.400,164.000 100.400 C 162.900 100.400,162.000 100.580,162.000 100.800 C 162.000 101.020,161.370 101.200,160.600 101.200 C 159.830 101.200,159.200 101.380,159.200 101.600 C 159.200 101.820,158.761 102.000,158.224 102.000 C 157.687 102.000,157.136 102.180,157.000 102.400 C 156.864 102.620,156.403 102.800,155.976 102.800 C 155.549 102.800,155.200 102.980,155.200 103.200 C 155.200 103.420,154.840 103.600,154.400 103.600 C 153.960 103.600,153.600 103.780,153.600 104.000 C 153.600 104.220,153.240 104.400,152.800 104.400 C 152.360 104.400,152.000 104.580,152.000 104.800 C 152.000 105.020,151.640 105.200,151.200 105.200 C 150.760 105.200,150.400 105.380,150.400 105.600 C 150.400 105.820,150.040 106.000,149.600 106.000 C 149.160 106.000,148.800 106.180,148.800 106.400 C 148.800 106.620,148.530 106.800,148.200 106.800 C 147.870 106.800,147.600 106.980,147.600 107.200 C 147.600 107.420,147.330 107.600,147.000 107.600 C 146.670 107.600,146.400 107.768,146.400 107.973 C 146.400 108.178,146.034 108.462,145.587 108.604 C 145.140 108.746,144.350 109.253,143.831 109.731 C 141.570 111.814,140.388 112.802,140.180 112.782 C 140.058 112.770,139.437 113.354,138.799 114.080 C 138.162 114.806,137.362 115.715,137.021 116.100 C 136.679 116.485,136.400 116.914,136.400 117.053 C 136.400 117.192,136.076 117.597,135.681 117.953 C 135.286 118.309,134.529 119.230,134.000 120.000 C 133.471 120.770,132.926 121.490,132.789 121.600 C 132.652 121.710,132.104 122.610,131.570 123.600 C 131.037 124.590,130.508 125.490,130.395 125.600 C 130.075 125.911,127.183 132.139,126.587 133.800 C 126.219 134.825,125.629 137.354,125.281 139.400 C 124.932 141.450,124.916 158.552,125.262 160.400 C 126.128 165.036,126.346 165.799,127.641 168.700 C 129.268 172.344,130.212 174.206,130.500 174.333 C 130.665 174.407,130.800 174.812,130.800 175.233 C 130.800 175.655,130.980 176.000,131.200 176.000 C 131.420 176.000,131.600 176.236,131.600 176.525 C 131.600 176.813,131.920 177.398,132.311 177.825 C 132.702 178.251,133.458 179.230,133.992 180.000 C 134.525 180.770,135.286 181.691,135.681 182.047 C 136.076 182.403,136.400 182.806,136.400 182.942 C 136.400 183.415,139.764 187.200,140.184 187.200 C 140.329 187.200,141.261 187.965,142.256 188.900 C 143.251 189.835,144.545 190.851,145.132 191.158 C 145.720 191.465,146.290 191.825,146.400 191.958 C 146.719 192.344,148.934 193.628,149.700 193.871 C 150.085 193.993,150.400 194.252,150.400 194.447 C 150.400 194.641,150.760 194.800,151.200 194.800 C 151.640 194.800,152.000 194.980,152.000 195.200 C 152.000 195.420,152.360 195.600,152.800 195.600 C 153.240 195.600,153.600 195.780,153.600 196.000 C 153.600 196.220,153.960 196.400,154.400 196.400 C 154.840 196.400,155.200 196.580,155.200 196.800 C 155.200 197.020,155.549 197.200,155.976 197.200 C 156.403 197.200,156.864 197.380,157.000 197.600 C 157.136 197.820,157.777 198.000,158.424 198.000 C 159.071 198.000,159.600 198.180,159.600 198.400 C 159.600 198.620,160.140 198.800,160.800 198.800 C 161.460 198.800,162.000 198.980,162.000 199.200 C 162.000 199.420,162.889 199.600,163.976 199.600 C 165.063 199.600,166.064 199.780,166.200 200.000 C 166.530 200.533,183.300 200.540,183.833 200.007 C 184.050 199.790,185.076 199.581,186.113 199.542 C 187.151 199.502,188.000 199.319,188.000 199.135 C 188.000 198.951,188.273 198.800,188.606 198.800 C 189.576 198.800,192.400 197.834,192.400 197.503 C 192.400 197.336,192.940 197.200,193.600 197.200 C 194.260 197.200,194.801 197.065,194.803 196.900 C 194.807 196.541,196.744 195.600,197.480 195.600 C 197.766 195.600,198.000 195.420,198.000 195.200 C 198.000 194.980,198.360 194.800,198.800 194.800 C 199.240 194.800,199.600 194.662,199.600 194.494 C 199.600 194.326,200.296 193.887,201.147 193.518 C 201.999 193.150,202.969 192.574,203.304 192.239 C 203.850 191.693,204.232 191.962,206.965 194.815 C 208.644 196.567,210.204 198.000,210.432 198.000 C 210.660 198.000,210.744 198.167,210.618 198.371 C 210.492 198.575,210.751 198.857,211.194 198.998 C 211.637 199.139,212.000 199.419,212.000 199.621 C 212.000 199.939,226.367 214.400,226.683 214.400 C 226.997 214.400,228.400 216.053,228.400 216.424 C 228.400 216.657,228.583 216.734,228.807 216.596 C 229.030 216.458,229.092 216.149,228.945 215.911 C 228.792 215.664,228.861 215.590,229.104 215.741 C 229.339 215.886,229.608 215.869,229.700 215.702 C 229.793 215.536,229.816 215.619,229.752 215.887 C 229.618 216.444,230.245 216.960,230.500 216.502 C 230.593 216.336,230.614 216.425,230.547 216.700 C 230.480 216.975,230.734 217.203,231.113 217.206 C 231.697 217.211,231.711 217.269,231.206 217.588 C 230.794 217.849,230.510 217.783,230.281 217.373 C 230.099 217.049,229.781 216.888,229.572 217.017 C 229.073 217.326,230.159 218.400,230.971 218.400 C 231.317 218.400,231.638 218.355,231.684 218.300 C 231.730 218.245,231.865 213.263,231.984 207.228 C 232.184 197.056,232.248 196.304,232.856 196.913 C 233.465 197.522,233.527 197.496,233.705 196.562 C 233.850 195.807,233.755 195.608,233.328 195.772 C 233.015 195.892,232.842 195.856,232.944 195.691 C 233.046 195.526,232.851 195.033,232.511 194.596 C 232.010 193.951,231.938 193.933,232.134 194.500 C 232.266 194.885,232.201 195.200,231.987 195.200 C 231.774 195.200,231.600 194.922,231.600 194.582 C 231.600 194.242,231.169 193.533,230.642 193.006 C 230.116 192.479,229.786 191.948,229.909 191.824 C 230.125 191.608,229.350 191.444,228.670 191.563 C 228.489 191.594,228.438 191.462,228.558 191.268 C 228.857 190.784,227.022 189.119,226.606 189.496 C 226.422 189.663,226.389 189.595,226.531 189.345 C 226.840 188.805,225.858 187.875,225.430 188.303 C 225.267 188.467,225.177 188.420,225.230 188.200 C 225.388 187.547,224.745 186.387,224.358 186.626 C 224.161 186.748,223.996 186.612,223.991 186.324 C 223.985 186.036,223.265 185.270,222.391 184.623 C 221.516 183.976,220.800 183.289,220.800 183.097 C 220.800 182.905,219.901 181.872,218.802 180.802 C 216.960 179.008,216.461 177.600,217.666 177.600 C 217.876 177.600,217.936 177.420,217.800 177.200 C 217.664 176.980,217.743 176.800,217.976 176.800 C 218.209 176.800,218.379 176.665,218.353 176.500 C 218.189 175.465,218.417 175.007,218.800 175.600 C 219.127 176.106,219.189 176.085,219.194 175.462 C 219.197 175.056,219.531 174.246,219.935 173.662 C 220.712 172.539,221.244 171.388,221.439 170.407 C 221.503 170.081,221.727 169.758,221.936 169.688 C 222.144 169.619,222.224 169.212,222.112 168.786 C 221.986 168.302,222.152 167.917,222.555 167.762 C 222.910 167.626,223.200 167.120,223.200 166.637 C 223.200 166.155,223.416 165.544,223.680 165.280 C 224.053 164.907,224.042 164.800,223.631 164.800 C 223.234 164.800,223.213 164.666,223.548 164.263 C 223.793 163.968,223.865 163.598,223.708 163.441 C 223.551 163.285,223.679 162.998,223.992 162.805 C 224.344 162.587,224.568 161.757,224.580 160.627 C 224.591 159.623,224.723 158.801,224.872 158.800 C 225.022 158.800,225.163 154.840,225.184 150.000 C 225.206 145.160,225.073 141.200,224.889 141.200 C 224.705 141.200,224.597 140.615,224.650 139.900 C 224.702 139.185,224.528 138.150,224.264 137.600 C 223.999 137.050,223.786 136.240,223.791 135.800 C 223.796 135.360,223.638 134.883,223.440 134.740 C 223.243 134.596,223.035 133.966,222.980 133.340 C 222.839 131.742,222.832 131.731,222.398 132.400 C 222.112 132.840,222.046 132.654,222.151 131.700 C 222.256 130.752,222.134 130.400,221.701 130.400 C 221.286 130.400,221.163 130.104,221.294 129.420 C 221.402 128.857,221.302 128.474,221.059 128.520 C 220.827 128.564,220.610 128.330,220.576 128.000 C 220.453 126.791,219.900 125.615,219.555 125.828 C 219.360 125.949,219.200 125.767,219.200 125.424 C 219.200 125.081,219.043 124.800,218.850 124.800 C 218.657 124.800,218.401 124.303,218.279 123.695 C 218.157 123.087,217.730 122.202,217.329 121.728 C 215.476 119.540,215.200 119.171,215.200 118.884 C 215.200 118.715,214.840 118.317,214.400 118.000 C 213.960 117.683,213.600 117.193,213.600 116.912 C 213.600 116.630,213.450 116.400,213.268 116.400 C 213.085 116.400,212.699 115.959,212.410 115.419 C 212.122 114.880,211.749 114.475,211.583 114.519 C 211.416 114.564,211.307 114.474,211.340 114.319 C 211.401 114.031,209.284 112.150,208.646 111.925 C 208.451 111.856,207.493 111.035,206.517 110.100 C 205.541 109.165,204.385 108.400,203.948 108.400 C 203.511 108.400,203.254 108.236,203.379 108.035 C 203.503 107.834,203.064 107.430,202.402 107.137 C 201.741 106.844,201.200 106.469,201.200 106.302 C 201.200 106.136,200.840 106.000,200.400 106.000 C 199.960 106.000,199.600 105.820,199.600 105.600 C 199.600 105.380,199.240 105.200,198.800 105.200 C 198.360 105.200,198.000 105.020,198.000 104.800 C 198.000 104.580,197.640 104.400,197.200 104.400 C 196.760 104.400,196.400 104.220,196.400 104.000 C 196.400 103.780,196.040 103.600,195.600 103.600 C 195.160 103.600,194.800 103.420,194.800 103.200 C 194.800 102.980,194.451 102.800,194.024 102.800 C 193.597 102.800,193.136 102.620,193.000 102.400 C 192.864 102.180,192.313 102.000,191.776 102.000 C 191.239 102.000,190.800 101.820,190.800 101.600 C 190.800 101.380,190.170 101.200,189.400 101.200 C 188.630 101.200,188.000 101.020,188.000 100.800 C 188.000 100.580,187.100 100.400,186.000 100.400 C 184.900 100.400,184.000 100.220,184.000 100.000 C 184.000 99.745,180.733 99.600,175.000 99.600 C 169.267 99.600,166.000 99.745,166.000 100.000 M169.365 118.100 C 169.139 118.500,169.190 118.500,169.621 118.100 C 170.228 117.537,179.811 117.370,180.148 117.916 C 180.256 118.090,181.031 118.279,181.871 118.336 C 182.711 118.392,183.570 118.610,183.779 118.819 C 183.989 119.029,184.563 119.200,185.056 119.200 C 185.549 119.200,186.064 119.380,186.200 119.600 C 186.336 119.820,186.853 120.000,187.348 120.000 C 187.844 120.000,188.636 120.360,189.108 120.800 C 189.580 121.240,190.116 121.600,190.299 121.600 C 190.964 121.600,193.562 123.105,193.318 123.349 C 193.080 123.587,193.815 123.762,194.530 123.637 C 194.711 123.606,194.745 123.765,194.606 123.990 C 194.467 124.216,194.514 124.400,194.712 124.400 C 195.244 124.400,200.400 129.376,200.400 129.890 C 200.400 130.133,200.940 130.842,201.600 131.465 C 202.260 132.088,202.800 132.924,202.800 133.322 C 202.800 133.721,202.980 133.936,203.200 133.800 C 203.427 133.660,203.600 133.996,203.600 134.576 C 203.600 135.139,203.780 135.600,204.000 135.600 C 204.220 135.600,204.400 135.960,204.400 136.400 C 204.400 136.840,204.544 137.200,204.720 137.200 C 205.094 137.200,206.000 139.554,206.000 140.528 C 206.000 140.898,206.180 141.200,206.400 141.200 C 206.620 141.200,206.800 141.909,206.800 142.776 C 206.800 143.643,206.980 144.464,207.200 144.600 C 207.433 144.744,207.600 146.996,207.600 150.000 C 207.600 153.004,207.433 155.256,207.200 155.400 C 206.980 155.536,206.800 156.231,206.800 156.944 C 206.800 157.657,206.626 158.414,206.413 158.627 C 206.201 158.839,205.983 159.595,205.928 160.307 C 205.874 161.018,205.688 161.600,205.515 161.600 C 205.342 161.600,205.200 161.870,205.200 162.200 C 205.200 162.530,205.020 162.800,204.800 162.800 C 204.580 162.800,204.400 163.160,204.400 163.600 C 204.400 164.040,204.175 164.403,203.900 164.406 C 203.508 164.411,203.506 164.479,203.891 164.724 C 204.252 164.954,204.173 165.187,203.591 165.606 C 203.156 165.920,202.800 166.417,202.800 166.710 C 202.800 167.003,202.261 167.819,201.602 168.522 C 200.943 169.225,200.403 169.964,200.402 170.164 C 200.399 170.634,195.214 175.600,194.725 175.600 C 194.520 175.600,194.464 175.780,194.600 176.000 C 194.736 176.220,194.477 176.400,194.024 176.400 C 193.571 176.400,193.199 176.535,193.197 176.700 C 193.195 177.049,190.923 178.400,190.339 178.400 C 190.121 178.400,189.671 178.672,189.339 179.004 C 189.007 179.336,188.570 179.505,188.368 179.380 C 188.165 179.255,188.000 179.343,188.000 179.576 C 188.000 179.809,187.670 180.000,187.267 180.000 C 186.863 180.000,186.410 180.123,186.259 180.274 C 185.735 180.798,182.992 181.588,181.676 181.594 C 180.948 181.597,180.452 181.761,180.574 181.958 C 180.846 182.399,170.582 182.561,169.890 182.128 C 169.621 181.959,168.950 181.771,168.400 181.711 C 167.030 181.561,164.283 180.733,163.820 180.330 C 163.611 180.149,163.116 180.000,162.720 180.000 C 162.324 180.000,162.000 179.820,162.000 179.600 C 162.000 179.380,161.640 179.200,161.200 179.200 C 160.760 179.200,160.400 179.020,160.400 178.800 C 160.400 178.580,160.040 178.400,159.600 178.400 C 159.160 178.400,158.800 178.240,158.800 178.043 C 158.800 177.847,158.350 177.574,157.800 177.436 C 157.250 177.298,156.800 177.013,156.800 176.803 C 156.800 176.592,156.272 176.147,155.626 175.813 C 154.317 175.137,149.600 170.649,149.600 170.081 C 149.600 169.882,149.060 169.154,148.400 168.463 C 147.740 167.772,147.200 166.936,147.200 166.604 C 147.200 166.272,147.020 166.000,146.800 166.000 C 146.580 166.000,146.400 165.640,146.400 165.200 C 146.400 164.760,146.220 164.400,146.000 164.400 C 145.780 164.400,145.600 164.040,145.600 163.600 C 145.600 163.160,145.456 162.800,145.280 162.800 C 144.906 162.800,144.000 160.446,144.000 159.472 C 144.000 159.102,143.820 158.800,143.600 158.800 C 143.380 158.800,143.200 158.091,143.200 157.224 C 143.200 156.357,143.020 155.536,142.800 155.400 C 142.567 155.256,142.400 153.004,142.400 150.000 C 142.400 146.996,142.567 144.744,142.800 144.600 C 143.020 144.464,143.200 143.643,143.200 142.776 C 143.200 141.909,143.380 141.200,143.600 141.200 C 143.820 141.200,144.000 140.898,144.000 140.528 C 144.000 139.554,144.906 137.200,145.280 137.200 C 145.456 137.200,145.600 136.840,145.600 136.400 C 145.600 135.960,145.780 135.600,146.000 135.600 C 146.220 135.600,146.400 135.240,146.400 134.800 C 146.400 134.360,146.580 134.000,146.800 134.000 C 147.020 134.000,147.200 133.728,147.200 133.396 C 147.200 133.064,147.740 132.228,148.400 131.537 C 149.060 130.846,149.600 130.118,149.600 129.919 C 149.600 129.239,155.673 123.600,156.405 123.600 C 156.622 123.600,156.800 123.423,156.800 123.208 C 156.800 122.992,157.250 122.702,157.800 122.564 C 158.350 122.426,158.800 122.153,158.800 121.957 C 158.800 121.760,159.160 121.600,159.600 121.600 C 160.040 121.600,160.400 121.420,160.400 121.200 C 160.400 120.980,160.760 120.800,161.200 120.800 C 161.640 120.800,162.000 120.620,162.000 120.400 C 162.000 120.180,162.349 120.000,162.776 120.000 C 163.203 120.000,163.664 119.820,163.800 119.600 C 163.936 119.380,164.476 119.200,165.000 119.200 C 165.524 119.200,166.064 119.020,166.200 118.800 C 166.336 118.580,166.966 118.400,167.600 118.400 C 168.234 118.400,168.864 118.220,169.000 118.000 C 169.360 117.417,169.698 117.509,169.365 118.100 M231.600 219.029 C 231.600 220.115,232.674 220.924,232.912 220.016 C 233.050 219.486,232.942 219.324,232.550 219.474 C 232.164 219.622,232.068 219.489,232.238 219.045 C 232.374 218.690,232.286 218.400,232.043 218.400 C 231.799 218.400,231.600 218.683,231.600 219.029 " stroke="none" fill="#000000" fill-rule="evenodd"></path><path id="path1" d="M233.600 33.000 C 233.600 33.418,233.146 33.614,232.100 33.646 C 231.275 33.672,230.915 33.775,231.300 33.876 C 231.936 34.042,232.000 34.765,232.000 41.829 C 232.000 48.946,231.941 49.604,231.300 49.646 C 230.915 49.671,231.320 49.841,232.200 50.023 C 233.080 50.205,246.895 50.364,262.900 50.377 C 282.018 50.392,292.000 50.537,292.000 50.800 C 292.000 51.026,293.133 51.200,294.600 51.200 C 296.030 51.200,297.200 51.342,297.200 51.515 C 297.200 51.688,297.782 51.874,298.493 51.928 C 299.205 51.983,299.961 52.201,300.173 52.413 C 300.386 52.626,300.884 52.800,301.280 52.800 C 301.676 52.800,302.000 52.980,302.000 53.200 C 302.000 53.420,302.261 53.600,302.580 53.600 C 303.372 53.600,306.800 55.951,306.800 56.495 C 306.800 56.736,306.919 56.814,307.064 56.669 C 307.298 56.436,307.966 57.084,311.204 60.686 C 311.642 61.173,312.000 61.848,312.000 62.186 C 312.000 62.524,312.135 62.801,312.300 62.803 C 312.659 62.807,313.600 64.744,313.600 65.480 C 313.600 65.766,313.780 66.000,314.000 66.000 C 314.220 66.000,314.400 66.439,314.400 66.976 C 314.400 67.513,314.580 68.064,314.800 68.200 C 315.020 68.336,315.200 69.146,315.200 70.000 C 315.200 70.854,315.380 71.664,315.600 71.800 C 316.509 72.362,316.110 302.800,315.200 302.800 C 314.760 302.800,314.400 302.620,314.400 302.400 C 314.400 302.180,314.040 302.000,313.600 302.000 C 313.160 302.000,312.800 301.820,312.800 301.600 C 312.800 301.380,312.260 301.200,311.600 301.200 C 310.940 301.200,310.400 301.020,310.400 300.800 C 310.400 300.580,309.781 300.400,309.024 300.400 C 308.267 300.400,307.536 300.220,307.400 300.000 C 307.096 299.507,234.577 299.485,232.200 299.977 C 231.320 300.159,230.915 300.329,231.300 300.354 C 231.941 300.396,232.000 301.054,232.000 308.171 C 232.000 315.235,231.936 315.958,231.300 316.124 C 230.915 316.225,231.275 316.328,232.100 316.354 C 233.146 316.386,233.600 316.582,233.600 317.000 C 233.600 317.529,237.775 317.600,268.776 317.600 C 291.796 317.600,304.038 317.738,304.200 318.000 C 304.336 318.220,304.797 318.400,305.224 318.400 C 305.651 318.400,306.000 318.580,306.000 318.800 C 306.000 319.020,306.360 319.200,306.800 319.200 C 307.240 319.200,307.600 319.380,307.600 319.600 C 307.600 319.820,307.881 320.000,308.225 320.000 C 309.487 320.000,314.400 325.565,314.400 326.995 C 314.400 327.328,314.580 327.600,314.800 327.600 C 315.020 327.600,315.200 328.219,315.200 328.976 C 315.200 329.733,315.380 330.464,315.600 330.600 C 315.820 330.736,316.000 331.906,316.000 333.200 C 316.000 334.494,315.820 335.664,315.600 335.800 C 315.380 335.936,315.200 336.543,315.200 337.148 C 315.200 338.471,313.776 341.549,312.751 342.441 C 312.346 342.793,312.107 343.174,312.221 343.287 C 312.406 343.472,311.407 344.425,308.853 346.500 C 308.379 346.885,307.723 347.200,307.395 347.200 C 307.068 347.200,306.800 347.380,306.800 347.600 C 306.800 347.820,306.249 348.000,305.576 348.000 C 304.863 348.000,304.456 348.167,304.600 348.400 C 304.753 348.648,304.012 348.800,302.647 348.800 C 301.437 348.800,300.336 348.980,300.200 349.200 C 300.039 349.461,288.471 349.608,266.876 349.623 C 248.684 349.636,233.080 349.795,232.200 349.977 C 231.320 350.159,230.915 350.329,231.300 350.354 C 231.941 350.396,232.000 351.054,232.000 358.171 C 232.000 365.235,231.936 365.958,231.300 366.124 C 230.915 366.225,231.275 366.328,232.100 366.354 C 233.146 366.386,233.600 366.582,233.600 367.000 C 233.600 367.529,237.800 367.600,269.000 367.600 C 292.333 367.600,304.400 367.464,304.400 367.200 C 304.400 366.980,305.210 366.800,306.200 366.800 C 307.190 366.800,308.000 366.620,308.000 366.400 C 308.000 366.180,308.720 366.000,309.600 366.000 C 310.480 366.000,311.200 365.820,311.200 365.600 C 311.200 365.380,311.639 365.200,312.176 365.200 C 312.713 365.200,313.264 365.020,313.400 364.800 C 313.536 364.580,313.997 364.400,314.424 364.400 C 314.851 364.400,315.200 364.220,315.200 364.000 C 315.200 363.780,315.560 363.600,316.000 363.600 C 316.440 363.600,316.800 363.442,316.800 363.249 C 316.800 363.055,317.340 362.673,318.000 362.400 C 318.660 362.127,319.200 361.784,319.200 361.638 C 319.200 361.492,319.695 361.078,320.300 360.717 C 321.708 359.878,326.800 354.930,326.800 354.401 C 326.800 354.181,326.980 354.000,327.200 354.000 C 327.420 354.000,327.600 353.730,327.600 353.400 C 327.600 353.070,327.780 352.800,328.000 352.800 C 328.220 352.800,328.400 352.530,328.400 352.200 C 328.400 351.870,328.580 351.600,328.800 351.600 C 329.020 351.600,329.200 351.330,329.200 351.000 C 329.200 350.670,329.380 350.400,329.600 350.400 C 329.820 350.400,330.000 350.040,330.000 349.600 C 330.000 349.160,330.180 348.800,330.400 348.800 C 330.620 348.800,330.800 348.440,330.800 348.000 C 330.800 347.560,330.980 347.200,331.200 347.200 C 331.420 347.200,331.600 346.851,331.600 346.424 C 331.600 345.997,331.780 345.536,332.000 345.400 C 332.220 345.264,332.400 344.533,332.400 343.776 C 332.400 343.019,332.580 342.400,332.800 342.400 C 333.020 342.400,333.200 341.680,333.200 340.800 C 333.200 339.920,333.380 339.200,333.600 339.200 C 333.866 339.200,334.000 293.800,334.000 203.800 C 334.000 113.800,333.866 68.400,333.600 68.400 C 333.380 68.400,333.200 67.500,333.200 66.400 C 333.200 65.300,333.020 64.400,332.800 64.400 C 332.580 64.400,332.400 63.871,332.400 63.224 C 332.400 62.577,332.220 61.936,332.000 61.800 C 331.780 61.664,331.600 61.113,331.600 60.576 C 331.600 60.039,331.420 59.600,331.200 59.600 C 330.980 59.600,330.800 59.150,330.800 58.600 C 330.800 58.050,330.620 57.600,330.400 57.600 C 330.180 57.600,330.000 57.240,330.000 56.800 C 330.000 56.360,329.820 56.000,329.600 56.000 C 329.380 56.000,329.200 55.640,329.200 55.200 C 329.200 54.760,329.020 54.400,328.800 54.400 C 328.580 54.400,328.400 54.080,328.400 53.688 C 328.400 53.297,328.040 52.717,327.600 52.400 C 327.160 52.083,326.800 51.543,326.800 51.200 C 326.800 50.857,326.440 50.317,326.000 50.000 C 325.560 49.683,325.200 49.193,325.200 48.912 C 325.200 48.630,325.020 48.400,324.800 48.400 C 324.580 48.400,324.400 48.192,324.400 47.938 C 324.400 47.398,318.849 42.000,318.295 42.000 C 318.089 42.000,317.417 41.460,316.800 40.800 C 316.183 40.140,315.391 39.600,315.040 39.600 C 314.688 39.600,314.400 39.448,314.400 39.263 C 314.400 39.077,313.545 38.492,312.500 37.963 C 311.455 37.433,310.540 36.865,310.467 36.700 C 310.393 36.535,309.898 36.400,309.367 36.400 C 308.835 36.400,308.400 36.220,308.400 36.000 C 308.400 35.780,307.950 35.600,307.400 35.600 C 306.850 35.600,306.400 35.420,306.400 35.200 C 306.400 34.980,305.961 34.800,305.424 34.800 C 304.887 34.800,304.336 34.620,304.200 34.400 C 304.064 34.180,303.333 34.000,302.576 34.000 C 301.819 34.000,301.200 33.820,301.200 33.600 C 301.200 33.378,300.141 33.200,298.824 33.200 C 297.517 33.200,296.336 33.020,296.200 32.800 C 295.748 32.069,233.600 32.268,233.600 33.000 M220.700 128.399 C 220.975 128.708,221.200 129.284,221.200 129.680 C 221.200 130.076,221.363 130.400,221.563 130.400 C 222.115 130.400,221.600 128.891,220.857 128.332 C 220.304 127.917,220.279 127.927,220.700 128.399 M230.700 194.067 C 229.938 194.865,230.336 195.104,231.120 194.320 C 231.493 193.947,231.600 193.991,231.600 194.520 C 231.600 194.894,231.786 195.200,232.014 195.200 C 232.332 195.200,231.856 193.665,231.446 193.367 C 231.421 193.348,231.085 193.663,230.700 194.067 M233.600 196.739 C 233.600 197.614,233.567 197.624,232.900 196.956 C 232.233 196.289,232.190 196.774,232.000 207.143 C 231.843 215.713,231.684 218.101,231.257 218.365 C 230.879 218.598,230.849 218.783,231.157 218.974 C 231.401 219.124,231.600 219.057,231.600 218.824 C 231.600 218.591,231.799 218.400,232.043 218.400 C 232.286 218.400,232.374 218.690,232.238 219.045 C 232.064 219.499,232.164 219.623,232.575 219.465 C 232.963 219.316,233.086 219.432,232.941 219.809 C 232.821 220.121,233.084 220.835,233.526 221.396 C 234.068 222.086,234.394 222.252,234.532 221.908 C 234.645 221.629,234.751 221.805,234.768 222.300 C 234.786 222.795,234.972 223.200,235.183 223.200 C 235.763 223.200,242.809 230.258,242.519 230.548 C 242.380 230.687,242.577 230.800,242.957 230.800 C 243.337 230.800,243.536 230.980,243.400 231.200 C 243.264 231.420,243.356 231.600,243.605 231.600 C 244.215 231.600,245.224 232.642,244.914 232.952 C 244.778 233.089,244.997 233.200,245.400 233.200 C 245.803 233.200,246.042 233.291,245.931 233.403 C 245.713 233.621,250.466 238.699,250.800 238.605 C 251.155 238.506,261.517 249.150,261.288 249.379 C 261.166 249.501,261.547 249.600,262.133 249.600 C 262.720 249.600,263.200 249.780,263.200 250.000 C 263.200 250.237,264.667 250.400,266.800 250.400 C 268.933 250.400,270.400 250.237,270.400 250.000 C 270.400 249.780,270.752 249.600,271.182 249.600 C 272.130 249.600,273.690 248.104,274.560 246.361 C 275.310 244.857,275.488 238.000,274.776 238.000 C 274.543 238.000,274.472 237.808,274.617 237.572 C 274.763 237.337,274.601 236.842,274.257 236.472 C 272.667 234.760,264.092 226.254,260.877 223.200 C 258.908 221.330,257.377 219.665,257.473 219.500 C 257.569 219.335,257.337 219.200,256.957 219.200 C 256.577 219.200,256.378 219.089,256.514 218.952 C 256.783 218.684,256.500 218.372,254.469 216.697 C 253.737 216.094,253.257 215.600,253.402 215.600 C 253.547 215.600,252.916 214.880,252.000 214.000 C 251.084 213.120,250.169 212.400,249.967 212.400 C 249.765 212.400,249.600 212.119,249.600 211.776 C 249.600 211.433,249.465 211.220,249.300 211.302 C 248.911 211.495,238.421 200.913,238.712 200.621 C 238.834 200.499,238.723 200.400,238.466 200.400 C 238.209 200.400,237.009 199.370,235.800 198.111 C 233.904 196.139,233.600 195.949,233.600 196.739 M229.600 215.624 C 229.600 215.857,229.436 215.946,229.235 215.822 C 229.034 215.698,228.917 215.912,228.973 216.298 C 229.030 216.684,229.291 217.000,229.553 217.000 C 229.815 217.000,230.162 217.215,230.325 217.479 C 230.520 217.795,230.822 217.831,231.211 217.585 C 231.708 217.270,231.693 217.211,231.113 217.206 C 230.734 217.203,230.480 216.975,230.547 216.700 C 230.614 216.425,230.593 216.336,230.500 216.502 C 230.202 217.038,229.627 216.395,229.860 215.787 C 229.984 215.464,229.976 215.200,229.843 215.200 C 229.709 215.200,229.600 215.391,229.600 215.624 " stroke="none" fill="#000000" fill-rule="evenodd"></path></g></svg>